<svg xmlns="http://www.w3.org/2000/svg" xmlns:xlink="http://www.w3.org/1999/xlink" width="1737.906" height="954.465" viewBox="0 0 1737.906 954.465">
  <defs>
    <clipPath id="clip-path">
      <path id="Path_34" data-name="Path 34" d="M212.607,226.2l-17.213,9.935a2.078,2.078,0,0,0-1.04,1.8v19.884a2.077,2.077,0,0,0,1.04,1.8l17.214,9.943a2.084,2.084,0,0,0,2.08,0l17.211-9.943a2.082,2.082,0,0,0,1.038-1.8V237.938a2.077,2.077,0,0,0-1.042-1.8L214.686,226.2a2.093,2.093,0,0,0-2.084,0" transform="translate(-194.354 -225.925)"/>
    </clipPath>
    <linearGradient id="linear-gradient" x1="-0.847" y1="-1.034" x2="-0.838" y2="-1.034" gradientUnits="objectBoundingBox">
      <stop offset="0.3" stop-color="#3e863d"/>
      <stop offset="0.5" stop-color="#55934f"/>
      <stop offset="0.8" stop-color="#5aad45"/>
    </linearGradient>
    <clipPath id="clip-path-2">
      <path id="Path_36" data-name="Path 36" d="M195.4,259.17a2.083,2.083,0,0,0,.613.538l14.766,8.529,2.46,1.414a2.087,2.087,0,0,0,1.2.272,2.127,2.127,0,0,0,.409-.075L233,236.606a2.059,2.059,0,0,0-.484-.384l-11.271-6.509-5.958-3.428a2.173,2.173,0,0,0-.539-.217Zm0,0" transform="translate(-195.398 -226.069)"/>
    </clipPath>
    <linearGradient id="linear-gradient-2" x1="-0.742" y1="-0.932" x2="-0.737" y2="-0.932" gradientUnits="objectBoundingBox">
      <stop offset="0.57" stop-color="#3e863d"/>
      <stop offset="0.72" stop-color="#619857"/>
      <stop offset="1" stop-color="#76ac64"/>
    </linearGradient>
    <clipPath id="clip-path-3">
      <path id="Path_38" data-name="Path 38" d="M215.016,225.942a2.1,2.1,0,0,0-.831.266l-17.164,9.906,18.508,33.711a2.066,2.066,0,0,0,.74-.255l17.213-9.943a2.085,2.085,0,0,0,1.005-1.42l-18.868-32.232a2.158,2.158,0,0,0-.421-.042c-.057,0-.114,0-.172.008" transform="translate(-197.021 -225.934)"/>
    </clipPath>
    <linearGradient id="linear-gradient-3" x1="-2.148" y1="-2.103" x2="-2.138" y2="-2.103" gradientUnits="objectBoundingBox">
      <stop offset="0.16" stop-color="#6bbf47"/>
      <stop offset="0.38" stop-color="#79b461"/>
      <stop offset="0.47" stop-color="#75ac64"/>
      <stop offset="0.7" stop-color="#659e5a"/>
      <stop offset="0.9" stop-color="#3e863d"/>
    </linearGradient>
    <linearGradient id="linear-gradient-4" x1="0.155" y1="0.035" x2="0.857" y2="0.975" gradientUnits="objectBoundingBox">
      <stop offset="0" stop-color="#8e12fd"/>
      <stop offset="1" stop-color="#6b10f3"/>
    </linearGradient>
  </defs>
  <g id="sass" transform="translate(784.905 639.891)">
    <path id="Path_14" data-name="Path 14" d="M339.5,332.013c-3.953-15.509-29.667-20.605-54-11.96-14.485,5.147-30.16,13.223-41.436,23.767-13.405,12.538-15.543,23.449-14.659,28.009,3.107,16.087,25.153,26.607,34.214,34.406v.047c-2.673,1.313-22.229,11.212-26.806,21.332-4.828,10.677.769,18.336,4.475,19.368,11.484,3.2,23.266-2.55,29.6-12,6.112-9.117,5.6-20.886,2.945-26.743a35.219,35.219,0,0,1,13.363-.765c15.318,1.789,18.323,11.352,17.749,15.356a10.094,10.094,0,0,1-4.862,6.868c-1.075.663-1.4.9-1.313,1.39.132.718.629.693,1.543.536,1.262-.213,8.041-3.256,8.335-10.643.37-9.38-8.62-19.874-24.537-19.6-6.554.115-10.677.735-13.656,1.845-.221-.251-.442-.5-.676-.748-9.839-10.5-28.03-17.923-27.261-32.038.281-5.13,2.066-18.642,34.954-35.031,26.942-13.427,48.512-9.729,52.24-1.543,5.326,11.7-11.527,33.437-39.506,36.573-10.66,1.194-16.274-2.937-17.668-4.475-1.471-1.619-1.687-1.692-2.24-1.39-.893.5-.327,1.925,0,2.78.837,2.176,4.263,6.031,10.107,7.948,5.143,1.687,17.656,2.614,32.795-3.239,16.95-6.567,30.189-24.809,26.3-40.054ZM267.38,411.043a22.334,22.334,0,0,1-.183,13.048c-.145.442-.306.876-.48,1.309s-.361.854-.565,1.275a24.42,24.42,0,0,1-4.033,5.878c-5.075,5.534-12.16,7.629-15.2,5.865-3.281-1.9-1.636-9.708,4.242-15.921,6.329-6.69,15.433-10.991,15.433-10.991l-.013-.025Z" transform="translate(-229.23 -315.864)" fill="#ec407a" stroke="#ec407a" stroke-width="6"/>
  </g>
  <path id="netlify" d="M69.472,34.615l-.034-.014a.145.145,0,0,1-.055-.031.265.265,0,0,1-.067-.224l1.863-11.393,8.738,8.741L70.829,35.56a.2.2,0,0,1-.08.014h-.036a.245.245,0,0,1-.048-.041,4.137,4.137,0,0,0-1.193-.918Zm12.675-.694,9.343,9.344c1.941,1.943,2.912,2.912,3.267,4.035a4.543,4.543,0,0,1,.13.5l-22.33-9.457-.036-.014c-.089-.036-.193-.077-.193-.169s.106-.135.2-.171l.029-.012ZM94.506,50.8a17.587,17.587,0,0,1-3.013,3.44L80.958,64.774,67.334,61.936l-.072-.014c-.121-.019-.248-.041-.248-.149A4.112,4.112,0,0,0,65.434,58.9a.237.237,0,0,1-.024-.222.077.077,0,0,1,0-.034l2.562-15.732.01-.053c.014-.121.036-.26.145-.26a4.17,4.17,0,0,0,2.8-1.6c.022-.024.036-.051.065-.065a.316.316,0,0,1,.248.034L94.5,50.8ZM78.536,67.2,61.213,84.519l2.965-18.224,0-.024a.346.346,0,0,1,.014-.07.235.235,0,0,1,.147-.106l.029-.012a4.459,4.459,0,0,0,1.675-1.246.369.369,0,0,1,.217-.145.217.217,0,0,1,.07,0l12.2,2.507ZM57.547,88.185l-1.953,1.953-21.587-31.2-.024-.034a.212.212,0,0,1-.063-.145.174.174,0,0,1,.053-.1L34,58.628c.065-.1.121-.193.181-.3l.048-.084.007-.007a.345.345,0,0,1,.123-.145.291.291,0,0,1,.176,0l23.916,4.932a.4.4,0,0,1,.183.08.176.176,0,0,1,.046.1,4.235,4.235,0,0,0,2.478,2.832c.067.034.039.108.007.188a.574.574,0,0,0-.036.108c-.3,1.832-2.885,17.593-3.58,21.847Zm-4.079,4.076c-1.439,1.425-2.288,2.179-3.247,2.483a4.821,4.821,0,0,1-2.907,0c-1.123-.357-2.095-1.326-4.035-3.269L21.6,69.8l5.663-8.782a.363.363,0,0,1,.1-.113.249.249,0,0,1,.219,0,5.867,5.867,0,0,0,3.949-.2c.065-.024.13-.041.181,0a.458.458,0,0,1,.067.077L53.468,92.263ZM19.509,67.707l-4.973-4.973,9.821-4.19a.2.2,0,0,1,.08-.017c.082,0,.13.082.174.157q.148.228.313.444l.031.039c.029.041.01.082-.019.121l-5.424,8.42Zm-7.174-7.174L6.043,54.242C4.973,53.171,4.2,52.4,3.657,51.727L22.787,55.7l.072.012c.118.019.248.041.248.152s-.142.176-.263.222l-.055.024ZM2.557,48.492A4.821,4.821,0,0,1,2.774,47.3c.357-1.123,1.326-2.092,3.269-4.035l8.051-8.051q5.562,8.071,11.152,16.121c.064.086.137.182.062.255a6.69,6.69,0,0,0-.952,1.273.386.386,0,0,1-.121.149.135.135,0,0,1-.1,0h0L2.557,48.49ZM16.25,33.057,27.076,22.231c1.017.446,4.72,2.01,8.032,3.409,2.507,1.061,4.792,2.025,5.511,2.338a.266.266,0,0,1,.169.13.247.247,0,0,1,0,.145,4.829,4.829,0,0,0,1.261,4.407c.072.072,0,.176-.063.265l-.034.051L30.959,50a.334.334,0,0,1-.1.121.279.279,0,0,1-.207,0,5.481,5.481,0,0,0-1.309-.178,7.212,7.212,0,0,0-1.258.152h0a.162.162,0,0,1-.13-.012.506.506,0,0,1-.108-.123ZM29.262,20.045,43.277,6.029c1.941-1.941,2.912-2.912,4.035-3.267a4.821,4.821,0,0,1,2.907,0c1.123.354,2.095,1.326,4.035,3.267l3.037,3.037L47.325,24.5a.374.374,0,0,1-.1.116.252.252,0,0,1-.217,0,5.055,5.055,0,0,0-4.628.892c-.065.067-.162.029-.243-.007-1.3-.566-11.426-4.845-12.875-5.46ZM59.41,11.183l9.2,9.2L66.4,34.123v.036a.325.325,0,0,1-.019.092c-.024.048-.072.058-.121.072a4.411,4.411,0,0,0-1.321.658.372.372,0,0,0-.048.041.153.153,0,0,1-.1.06.275.275,0,0,1-.1-.017L50.662,29.107l-.027-.012c-.089-.036-.2-.08-.2-.171a5.3,5.3,0,0,0-.747-2.206c-.067-.111-.142-.227-.084-.34ZM49.932,31.929,63.079,37.5c.072.034.152.065.183.14a.256.256,0,0,1,0,.137,3.268,3.268,0,0,0-.072.634v.369c0,.092-.094.13-.181.166l-.027.01c-2.083.89-29.24,12.47-29.283,12.47a.155.155,0,0,1-.125-.041c-.072-.072,0-.174.065-.265l.034-.048,10.8-16.73.019-.029c.063-.1.135-.215.251-.215l.108.017a5.035,5.035,0,0,0,.682.065,4.882,4.882,0,0,0,4.074-2.162.386.386,0,0,1,.082-.1.243.243,0,0,1,.236.01ZM34.875,54.071l29.6-12.624a.13.13,0,0,1,.084.041,4,4,0,0,0,.432.371l.065.041c.06.034.121.072.125.135a.246.246,0,0,1,0,.06L62.644,57.672l-.01.063c-.017.121-.034.258-.147.258a4.168,4.168,0,0,0-3.31,2.042l-.012.019a.336.336,0,0,1-.121.137.269.269,0,0,1-.169,0L35.269,55.324c-.024,0-.366-1.251-.393-1.254Z" transform="translate(1074.019 281.592)" fill="#00bfa5"/>
  <path id="markdown" d="M2.25,71.035V7.75H18.071L41.8,31.482,65.535,7.75H81.356V71.035H65.535v-40.9L41.8,53.869,18.071,30.137v40.9H2.25M113,7.75h23.732V39.393h19.777l-31.643,35.6-31.643-35.6H113Z" transform="translate(539.007 863.166)" fill="#42a5f5"/>
  <g id="Group_2301" data-name="Group 2301" transform="translate(1299.87 3.307)">
    <path id="Path_29" data-name="Path 29" d="M190.037,206.45a3.436,3.436,0,0,1-1.712-.458l-5.449-3.226c-.814-.455-.417-.616-.148-.709a11,11,0,0,0,2.464-1.124.414.414,0,0,1,.406.029l4.186,2.484a.553.553,0,0,0,.506,0l16.322-9.422a.515.515,0,0,0,.249-.441V174.749a.524.524,0,0,0-.253-.449l-16.316-9.413a.5.5,0,0,0-.5,0L173.477,174.3a.52.52,0,0,0-.259.445V193.58a.5.5,0,0,0,.253.437l4.47,2.582c2.427,1.213,3.91-.217,3.91-1.655v-18.59a.466.466,0,0,1,.474-.47h2.067a.467.467,0,0,1,.47.47v18.6c0,3.236-1.765,5.095-4.833,5.095a7,7,0,0,1-3.763-1.021l-4.282-2.468a3.451,3.451,0,0,1-1.712-2.978V174.745a3.43,3.43,0,0,1,1.712-2.974l16.339-9.426a3.579,3.579,0,0,1,3.432,0l16.318,9.43a3.443,3.443,0,0,1,1.712,2.974v18.835a3.453,3.453,0,0,1-1.712,2.974l-16.318,9.426a3.431,3.431,0,0,1-1.72.458" transform="translate(-100.705 -95.757)" fill="#689f63"/>
    <path id="Path_30" data-name="Path 30" d="M218.481,206.042c-7.142,0-8.639-3.278-8.639-6.028a.469.469,0,0,1,.473-.47h2.108a.472.472,0,0,1,.466.4c.319,2.148,1.267,3.232,5.585,3.232,3.44,0,4.9-.777,4.9-2.6,0-1.05-.417-1.83-5.761-2.353-4.47-.441-7.232-1.426-7.232-5,0-3.293,2.778-5.254,7.432-5.254,5.226,0,7.816,1.814,8.143,5.712a.475.475,0,0,1-.474.515h-2.12a.468.468,0,0,1-.458-.368c-.511-2.259-1.745-2.983-5.1-2.983-3.755,0-4.192,1.307-4.192,2.288,0,1.189.515,1.536,5.581,2.206,5.017.666,7.4,1.606,7.4,5.132,0,3.555-2.966,5.593-8.139,5.593m19.881-19.975h.547a.476.476,0,0,0,.535-.5c0-.482-.331-.482-.515-.482h-.564Zm-.666-1.544h1.213c.417,0,1.234,0,1.234.932a.811.811,0,0,1-.666.866c.486.033.519.351.584.8a3.442,3.442,0,0,0,.184.932h-.748c-.02-.163-.135-1.062-.135-1.111-.049-.2-.119-.3-.368-.3h-.617v1.414h-.682Zm-1.459,1.757a2.637,2.637,0,1,0,2.627-2.631,2.641,2.641,0,0,0-2.627,2.631m5.785.012a3.146,3.146,0,1,1-3.146-3.146,3.155,3.155,0,0,1,3.146,3.146" transform="translate(-124.108 -108.328)" fill="#689f63"/>
    <path id="Path_31" data-name="Path 31" d="M38.788,37a2.09,2.09,0,0,0-1.045-1.816L20.437,25.223a2.021,2.021,0,0,0-.951-.274h-.179a2.056,2.056,0,0,0-.956.274L1.047,35.18A2.106,2.106,0,0,0,0,37L.038,63.816a1.03,1.03,0,0,0,.519.9.989.989,0,0,0,1.038,0l10.288-5.892a2.11,2.11,0,0,0,1.046-1.814V44.485a2.084,2.084,0,0,1,1.044-1.81l4.38-2.522a2.078,2.078,0,0,1,1.046-.281,2.041,2.041,0,0,1,1.039.281l4.378,2.522a2.085,2.085,0,0,1,1.046,1.81V57.011a2.117,2.117,0,0,0,1.048,1.814L37.19,64.713a1.021,1.021,0,0,0,1.046,0,1.049,1.049,0,0,0,.518-.9Zm81.659,13.963a.519.519,0,0,1-.261.452l-5.944,3.426a.524.524,0,0,1-.522,0l-5.945-3.426a.518.518,0,0,1-.261-.452V44.1a.526.526,0,0,1,.257-.454l5.941-3.432a.528.528,0,0,1,.527,0l5.945,3.432a.521.521,0,0,1,.261.454ZM122.053.132a1.045,1.045,0,0,0-1.555.914V27.6a.731.731,0,0,1-1.1.633l-4.335-2.5a2.087,2.087,0,0,0-2.089,0L95.667,35.73a2.086,2.086,0,0,0-1.046,1.806V57.523a2.092,2.092,0,0,0,1.046,1.81l17.311,10a2.1,2.1,0,0,0,2.091,0l17.311-10a2.1,2.1,0,0,0,1.046-1.81V7.707a2.1,2.1,0,0,0-1.075-1.826ZM179.7,43.916a2.09,2.09,0,0,0,1.039-1.807V37.265a2.091,2.091,0,0,0-1.041-1.808l-17.2-9.985a2.089,2.089,0,0,0-2.1,0l-17.307,9.989a2.087,2.087,0,0,0-1.046,1.81V57.25a2.1,2.1,0,0,0,1.054,1.818l17.2,9.8a2.085,2.085,0,0,0,2.051.012l10.4-5.781a1.044,1.044,0,0,0,.008-1.818L155.346,51.29a1.037,1.037,0,0,1-.527-.9V44.119a1.037,1.037,0,0,1,.523-.905l5.418-3.126a1.033,1.033,0,0,1,1.042,0l5.422,3.126a1.042,1.042,0,0,1,.523.9v4.927a1.042,1.042,0,0,0,1.569.9Zm0,0" transform="translate(0 0)" fill-rule="evenodd"/>
    <path id="Path_32" data-name="Path 32" d="M389.437,105.121a.4.4,0,0,1,.4,0l3.322,1.916a.4.4,0,0,1,.2.347v3.836a.4.4,0,0,1-.2.347l-3.322,1.916a.4.4,0,0,1-.4,0l-3.32-1.916a.4.4,0,0,1-.2-.347v-3.836a.4.4,0,0,1,.2-.347Zm0,0" transform="translate(-228.242 -62.14)" fill="#689f63" fill-rule="evenodd"/>
    <g id="Group_20" data-name="Group 20" transform="translate(47.413 25.294)" clip-path="url(#clip-path)">
      <path id="Path_33" data-name="Path 33" d="M225.15,212.377l-48.5-23.774-24.869,50.733,48.5,23.776Zm0,0" transform="translate(-169.173 -203.852)" fill="url(#linear-gradient)"/>
    </g>
    <g id="Group_21" data-name="Group 21" transform="translate(47.84 25.353)" clip-path="url(#clip-path-2)">
      <path id="Path_35" data-name="Path 35" d="M144.07,215.564l34.248,46.353,45.294-33.464L189.362,182.1Zm0,0" transform="translate(-165.041 -200.065)" fill="url(#linear-gradient-2)"/>
    </g>
    <g id="Group_22" data-name="Group 22" transform="translate(48.503 25.298)" clip-path="url(#clip-path-3)">
      <path id="Path_37" data-name="Path 37" d="M197.02,225.934v43.892h37.459V225.934Zm0,0" transform="translate(-197.02 -225.934)" fill="url(#linear-gradient-3)"/>
    </g>
  </g>
  <path id="_733553" data-name="733553" d="M49.775,5.329a50.009,50.009,0,0,0-15.725,97.4c2.489.46,3.4-1.083,3.4-2.408,0-1.189-.044-4.331-.068-8.5-13.845,3.018-16.77-6.7-16.77-6.7-2.259-5.775-5.526-7.312-5.526-7.312-4.524-3.1.336-3.037.336-3.037,5,.355,7.623,5.152,7.623,5.152,4.443,7.635,11.655,5.432,14.492,4.15A10.669,10.669,0,0,1,40.7,77.393C29.645,76.13,18.021,71.843,18.021,52.7A19.372,19.372,0,0,1,23.148,39.28c-.516-1.263-2.221-6.347.485-13.223,0,0,4.182-1.344,13.69,5.121a46.988,46.988,0,0,1,24.928.006c9.5-6.465,13.677-5.121,13.677-5.121,2.713,6.882,1.008,11.96.5,13.223A19.335,19.335,0,0,1,81.541,52.7c0,19.2-11.636,23.422-22.725,24.66C60.6,78.905,62.2,81.954,62.2,86.615c0,6.683-.062,12.072-.062,13.708,0,1.338.9,2.894,3.422,2.4a50.014,50.014,0,0,0-15.781-97.4Z" transform="translate(1200.324 450.442)"/>
  <g id="jquery-d7c64dd9e4" transform="translate(1407.636 553.503)">
    <path id="Path_28" data-name="Path 28" d="M80.74,78.551l-.182-.1c-2.59,3.574-5.21,7.127-7.764,10.726a35.939,35.939,0,0,0-6.787,20.548,46.624,46.624,0,0,0,2.7,16.261c5.721,16.468,17.439,27.267,32.989,34.182a50.113,50.113,0,0,0,30.086,3.3c8.747-1.627,16.251-5.582,21.92-12.532,3.224-3.954,6.109-8.186,9.14-12.3.067-.09.062-.231.051-.183-2.166,1.764-4.266,3.763-6.638,5.356-8.827,5.923-18.74,7.314-29.075,6.458a50.031,50.031,0,0,1-17.839-4.994,62.468,62.468,0,0,1-22.282-17.678,51.363,51.363,0,0,1-10.506-24.7A37.514,37.514,0,0,1,78.691,83C79.307,81.489,80.055,80.033,80.74,78.551Zm83.309,33.9c-.294.273-.57.564-.88.817a43,43,0,0,1-3.944,3.162c-6.961,4.439-14.629,5.2-22.584,4.016a36.08,36.08,0,0,1-13.677-5.172c-9.659-5.966-16.406-14.1-18.816-25.43A26.84,26.84,0,0,1,105.158,74c.436-1.1.939-2.171,1.412-3.254-2.678,3.4-5.237,6.861-7.592,10.454a22.936,22.936,0,0,0-3.638,12.079,31.787,31.787,0,0,0,4.815,18.334c8.83,13.815,21.223,21.33,38.04,20.223a26.227,26.227,0,0,0,14.746-5.533C157.723,122.563,160.489,117.2,164.049,112.45Zm.524-19.584-.15-.11c-.872.655-1.7,1.38-2.625,1.956a19.544,19.544,0,0,1-14.52,2.461,25.709,25.709,0,0,1-18.937-14.309c-2.631-5.32-3.3-10.9-.753-16.538a2.64,2.64,0,0,0,.006-.66c-1.634,2.312-3.127,4.35-4.531,6.447a12.684,12.684,0,0,0-1.394,2.765c-2.189,6.168-1.082,12.033,2.241,17.4a25.694,25.694,0,0,0,20.29,12.711c4.988.46,9.8-.512,13.676-3.915a48.542,48.542,0,0,0,5.064-5.934C163.532,94.423,164.032,93.628,164.573,92.866Z" transform="translate(-66 -65.665)" fill="#008cdb"/>
  </g>
  <path id="bootstrap" d="M23.214,0A11.135,11.135,0,0,0,12.329,11.635c.2,5.816-.061,13.347-1.957,19.49C8.47,37.285,5.254,41.187,0,41.688v5.656c5.254.5,8.47,4.4,10.372,10.564,1.9,6.142,2.16,13.674,1.957,19.49A11.136,11.136,0,0,0,23.215,89.033H88.559A11.134,11.134,0,0,0,99.443,77.4c-.2-5.816.061-13.347,1.957-19.49,1.9-6.16,5.111-10.063,10.365-10.564V41.688c-5.254-.5-8.462-4.4-10.365-10.564-1.9-6.141-2.16-13.674-1.957-19.49A11.135,11.135,0,0,0,88.559,0H23.213ZM75.773,54.805c0,8.335-6.217,13.39-16.535,13.39H41.675A1.894,1.894,0,0,1,39.781,66.3V22.732a1.894,1.894,0,0,1,1.894-1.894H59.138c8.6,0,14.249,4.66,14.249,11.815A10.579,10.579,0,0,1,64.75,42.957v.262C71.337,43.943,75.773,48.5,75.773,54.805ZM57.323,26.842H47.309V40.987h8.434c6.52,0,10.116-2.626,10.116-7.319,0-4.4-3.092-6.826-8.536-6.826ZM47.309,46.6V62.189H57.691c6.788,0,10.385-2.724,10.385-7.843S64.379,46.6,57.255,46.6H47.309Z" transform="translate(1076.196 639.922)" fill-rule="evenodd" fill="url(#linear-gradient-4)"/>
  <g id="go" transform="translate(853.584 838.871)">
    <g id="Group_3" data-name="Group 3" transform="translate(14.831 19.187)">
      <g id="Group_2" data-name="Group 2">
        <g id="Group_1" data-name="Group 1">
          <path id="Path_1" data-name="Path 1" d="M58.481,145.789c-.393,0-.491-.2-.295-.491l2.063-2.652a1.407,1.407,0,0,1,1.08-.491H96.394c.393,0,.491.295.295.589l-1.67,2.554a1.5,1.5,0,0,1-.982.589Z" transform="translate(-58.088 -142.155)" fill="#00acc1"/>
        </g>
      </g>
    </g>
    <g id="Group_6" data-name="Group 6" transform="translate(0 28.223)">
      <g id="Group_5" data-name="Group 5">
        <g id="Group_4" data-name="Group 4">
          <path id="Path_2" data-name="Path 2" d="M36.443,159.217c-.393,0-.491-.2-.295-.491l2.063-2.652a1.407,1.407,0,0,1,1.08-.491H84.08a.451.451,0,0,1,.491.589l-.786,2.357a.859.859,0,0,1-.884.589Z" transform="translate(-36.05 -155.583)" fill="#00acc1"/>
        </g>
      </g>
    </g>
    <g id="Group_9" data-name="Group 9" transform="translate(23.77 37.26)">
      <g id="Group_8" data-name="Group 8">
        <g id="Group_7" data-name="Group 7">
          <path id="Path_3" data-name="Path 3" d="M71.762,172.644c-.393,0-.491-.295-.295-.589l1.375-2.456a1.3,1.3,0,0,1,.982-.589H93.469c.393,0,.589.295.589.688l-.2,2.357a.738.738,0,0,1-.688.688Z" transform="translate(-71.37 -169.01)" fill="#00acc1"/>
        </g>
      </g>
    </g>
    <g id="Group_13" data-name="Group 13" transform="translate(53.545)">
      <g id="CXHf1q_3_">
        <g id="Group_12" data-name="Group 12">
          <g id="Group_10" data-name="Group 10">
            <path id="Path_4" data-name="Path 4" d="M188.185,134.7c-6.188,1.572-10.411,2.75-16.5,4.322-1.473.393-1.572.491-2.848-.982a13.148,13.148,0,0,0-4.616-3.732c-6.188-3.045-12.179-2.161-17.778,1.473a20.889,20.889,0,0,0-10.019,18.662,15.4,15.4,0,0,0,13.26,15.421c6.679.884,12.278-1.473,16.7-6.483.884-1.08,1.67-2.259,2.652-3.634H150.075c-2.063,0-2.554-1.277-1.866-2.947,1.277-3.045,3.634-8.152,5.009-10.706a2.652,2.652,0,0,1,2.456-1.572h35.752c-.2,2.652-.2,5.3-.589,7.956a41.889,41.889,0,0,1-8.054,19.251c-7.072,9.331-16.3,15.126-27.993,16.7-9.626,1.277-18.564-.589-26.421-6.483a30.852,30.852,0,0,1-12.474-21.805c-1.277-10.706,1.866-20.332,8.349-28.779a43.587,43.587,0,0,1,27.5-16.992c9.233-1.67,18.073-.589,26.029,4.813a30.789,30.789,0,0,1,11.394,13.849c.589.884.2,1.375-.982,1.67Z" transform="translate(-115.614 -113.645)" fill="#00acc1"/>
          </g>
          <g id="Group_11" data-name="Group 11" transform="translate(70.013 0.91)">
            <path id="Path_5" data-name="Path 5" d="M254.718,189.456c-8.938-.2-17.09-2.75-23.966-8.643a30.8,30.8,0,0,1-10.608-18.957c-1.768-11.1,1.277-20.921,7.956-29.663,7.17-9.429,15.814-14.34,27.5-16.4,10.019-1.768,19.448-.786,27.993,5.009,7.759,5.3,12.572,12.474,13.849,21.9,1.67,13.26-2.161,24.064-11.3,33.3a45.008,45.008,0,0,1-23.573,12.572c-2.652.491-5.3.589-7.858.884Zm23.377-39.681a28.259,28.259,0,0,0-.295-3.241c-1.768-9.724-10.706-15.224-20.037-13.063-9.135,2.063-15.028,7.858-17.189,17.09a16.176,16.176,0,0,0,9.036,18.564,18.006,18.006,0,0,0,16.01-.589C273.38,164.508,277.6,158.222,278.095,149.775Z" transform="translate(-219.649 -114.996)" fill="#00acc1"/>
          </g>
        </g>
      </g>
    </g>
  </g>
  <path id="javascript" d="M3,3H112V114.216H3V3M31.642,95.927c2.422,5.252,7.206,9.577,15.381,9.577,9.083,0,15.32-4.943,15.32-15.756V54.036H52.049V89.5c0,5.314-2.119,6.673-5.45,6.673-3.512,0-4.965-2.471-6.6-5.375l-8.357,5.128m36.212-1.112C70.882,100.87,77,105.5,86.566,105.5c9.689,0,16.955-5.128,16.955-14.582,0-8.712-4.9-12.6-13.625-16.435l-2.543-1.112c-4.421-1.915-6.3-3.213-6.3-6.3,0-2.533,1.877-4.51,4.9-4.51,2.907,0,4.844,1.3,6.6,4.51l7.933-5.375C97.163,55.766,92.44,53.48,85.96,53.48c-9.144,0-15.018,5.932-15.018,13.778,0,8.527,4.9,12.543,12.293,15.756l2.543,1.112c4.723,2.1,7.509,3.4,7.509,6.982,0,2.966-2.725,5.128-6.964,5.128-5.026,0-7.933-2.657-10.113-6.364l-8.357,4.943Z" transform="translate(-3 817.236)" fill="#ffca28"/>
  <path id="php" d="M99.335,106.58C44.453,106.58,0,84.064,0,56.25S44.453,5.92,99.335,5.92s99.335,22.516,99.335,50.33-44.453,50.33-99.335,50.33M56.373,40.77c4.47,0,7.533.828,9.023,2.566,1.49,1.656,1.821,4.636,1.076,8.526-.828,4.387-2.4,7.2-4.8,9.023q-3.477,2.732-10.679,2.732h-7.2L48.178,40.77h8.2M27.4,86.713H39.32l2.814-14.486H52.317a37.1,37.1,0,0,0,11.01-1.407,22.016,22.016,0,0,0,7.947-4.8,23.769,23.769,0,0,0,4.8-6.043A21.193,21.193,0,0,0,78.64,52.69c1.324-6.457.414-11.506-2.732-15.066-3.228-3.642-8.2-5.381-15.066-5.381H38L27.4,86.713M87.415,17.757l-10.6,54.469H88.574L94.7,41.018h9.437c2.98,0,4.967.5,5.877,1.49s1.076,2.815.579,5.463l-4.718,24.254h12l4.884-25.413c1.076-5.132.248-8.857-2.235-11.258-2.483-2.235-7.036-3.311-13.659-3.311H96.355l2.98-14.486H87.415M149,40.77c4.553,0,7.533.828,9.023,2.566,1.49,1.656,1.821,4.636,1.076,8.526-.828,4.387-2.4,7.2-4.718,9.023-2.4,1.821-5.96,2.732-10.761,2.732h-7.036l4.139-22.847H149M120.03,86.713h11.92l2.815-14.486h10.1a37.906,37.906,0,0,0,11.175-1.407,22.413,22.413,0,0,0,7.864-4.8,22.088,22.088,0,0,0,4.8-6.043,23.177,23.177,0,0,0,2.649-7.285c1.242-6.457.331-11.506-2.815-15.066-2.98-3.642-8.2-5.381-15.066-5.381H130.709Z" transform="translate(209.437 763.576)" fill="#1e88e5"/>
  <g id="python" transform="translate(719.516)">
    <g id="Group_18" data-name="Group 18" transform="translate(0)">
      <path id="Path_17" data-name="Path 17" d="M37.52,2A12.918,12.918,0,0,0,24.6,14.924v7.591H43.982c1.763,0,3.213,2.58,3.213,4.343H14.923A12.918,12.918,0,0,0,2,39.781V56.87A12.918,12.918,0,0,0,14.923,69.793h5.332V57.683A12.888,12.888,0,0,1,33.142,44.76H56.87A12.888,12.888,0,0,0,69.793,31.872V14.924A12.918,12.918,0,0,0,56.87,2ZM34.272,9.275c1.808,0,3.248.547,3.248,3.213s-1.441,4.025-3.248,4.025c-1.763,0-3.213-1.359-3.213-4.025s1.45-3.213,3.213-3.213Z" transform="translate(-2 -2.001)" fill="#3c78aa"/>
      <path id="Path_18" data-name="Path 18" d="M56.529,7V19.111A12.881,12.881,0,0,1,43.65,32.034H19.923A12.881,12.881,0,0,0,7,44.912V61.861A12.926,12.926,0,0,0,19.923,74.792H39.272A12.925,12.925,0,0,0,52.195,61.863V54.269H32.8c-1.763,0-3.2-2.571-3.2-4.334H61.869A12.925,12.925,0,0,0,74.792,37.006V19.923A12.925,12.925,0,0,0,61.872,7ZM12.967,27.4l-.018.018c.054-.011.113-.007.168-.018ZM42.52,60.281c1.763,0,3.213,1.359,3.213,4.025a3.209,3.209,0,0,1-3.213,3.2c-1.808,0-3.248-.538-3.248-3.2S40.713,60.281,42.52,60.281Z" transform="translate(15.597 15.594)" fill="#fdd835"/>
    </g>
  </g>
  <path id="angular" d="M51.614,2.5l48.454,17.266L92.723,83.9,51.614,106.643,10.5,83.9,3.16,19.766,51.614,2.5m0,11.511L21.3,81.977H32.594L38.678,66.74H64.44l6.084,15.238H81.76L51.614,14.011m8.88,43.3h-17.7L51.614,36.1Z" transform="translate(1276.568 166.742)" fill="#e53935"/>
  <g id="Group_2302" data-name="Group 2302" transform="translate(1639.495 541.854)">
    <g id="Group_1468" data-name="Group 1468" transform="translate(0.36 0.146)">
      <circle id="Ellipse_156" data-name="Ellipse 156" cx="49" cy="49" r="49" transform="translate(0.051)" fill="#fff"/>
    </g>
    <g id="logo" transform="translate(0.321 0.675)">
      <path id="Path_26" data-name="Path 26" d="M44.729.025c-.227.024-.955.107-1.612.167A48.891,48.891,0,0,0,17.085,11.4,63.834,63.834,0,0,0,11.4,17.089,48.8,48.8,0,0,0,.224,42.679a77.193,77.193,0,0,0,0,11.75A48.8,48.8,0,0,0,11.4,80.019,63.836,63.836,0,0,0,17.085,85.7,48.8,48.8,0,0,0,42.675,96.88a77.195,77.195,0,0,0,11.75,0A48.8,48.8,0,0,0,80.015,85.7,63.838,63.838,0,0,0,85.7,80.019a48.8,48.8,0,0,0,11.177-25.59,77.191,77.191,0,0,0,0-11.75A48.8,48.8,0,0,0,85.7,17.089,63.836,63.836,0,0,0,80.015,11.4,48.836,48.836,0,0,0,54.5.24,47.4,47.4,0,0,0,49.087.013C46.926-.011,44.956,0,44.729.025Zm.6,5.159c0,1.4.1,4.43.227,7.308.072,1.409.155,3.427.191,4.478.131,3.726.525,13.506.585,14.377l.06.872-.537-.06a1.952,1.952,0,0,1-.621-.131,13.738,13.738,0,0,1-.167-1.839c-.215-4.251-.919-20.742-.991-23.154L44,4.384l.334-.048c.179-.024.478-.06.669-.072l.322-.012ZM56.754,4.9c.012.012.048,3.618.084,8.013s.107,8.359.143,8.789a1.867,1.867,0,0,1-.036.848,1.786,1.786,0,0,1-.645,0l-.549-.048-.084-3.475c-.048-1.923-.107-4.048-.131-4.741-.1-2.114-.179-9.29-.107-9.469.048-.131.179-.143.681-.06.346.072.633.131.645.143Zm-27.62,4c.072.107.633,6.687,1.325,15.3.227,2.926.454,5.6.49,5.935.06.609.048.633-.334.872a2.044,2.044,0,0,1-.478.239,1.835,1.835,0,0,1-.143-.693c-.167-1.552-.812-9.051-1.266-14.473-.263-3.188-.5-6.042-.537-6.353-.06-.525-.048-.573.263-.74.382-.2.6-.239.681-.084Zm32.874,2.4c.334.119.37.179.442.86a60.327,60.327,0,0,1-.048,6.9,1.689,1.689,0,0,1-1.122-.633c-.036-.143-.072-1.839-.072-3.761C61.208,10.784,61.16,11.011,62.008,11.3Zm-22.055.561c0,.322.084,2.1.179,3.976s.2,4.251.251,5.278c.084,2.078.107,2.006-.693,2.054-.394.012-.394.012-.418-.585-.024-.334-.084-1.373-.155-2.329s-.2-3.021-.3-4.6-.215-3.141-.251-3.475c-.072-.6-.06-.621.263-.74a2.536,2.536,0,0,1,.74-.131c.382-.012.382-.012.382.549Zm33.125,1.636.406.167.084,1.6c.036.872.06,2.758.036,4.179l-.036,2.6-.5-.251-.5-.239-.036-3.964c-.024-2.185-.012-4.036.012-4.12C72.588,13.292,72.588,13.292,73.077,13.495Zm-21.8,1.564c.072.072.239,5.863.251,8.8l.012,1.767-.561-.084a5.319,5.319,0,0,1-.6-.084c-.036-.024-.394-8.872-.394-9.732v-.884l.609.072A2.761,2.761,0,0,1,51.273,15.059Zm27.5.848c.143.167.167,2.782.2,17.207.036,16.562.036,16.992-.179,16.992a.781.781,0,0,1-.418-.155c-.179-.131-.2-1.576-.263-15.727-.048-8.574-.107-16.359-.143-17.3L77.9,15.2l.346.251a3.685,3.685,0,0,1,.525.454ZM68.062,18.355a6,6,0,0,1,.131,1.5c.06,2.639.072,18.819.012,18.867a1.237,1.237,0,0,1-.478-.131l-.43-.179V18.1l.334.072a1.244,1.244,0,0,1,.43.179ZM35.1,19.023c.036.322.1,1.051.131,1.648s.119,1.923.191,2.961c.143,2.1.119,2.233-.561,2.233-.358,0-.406-.036-.454-.394-.119-.7-.537-6.58-.478-6.675a2.668,2.668,0,0,1,.967-.322C34.973,18.462,35.068,18.713,35.1,19.023ZM15.353,22.068c.131,1.266.394,3.917.585,5.887s.37,3.642.37,3.714c0,.143-.919.6-1.015.5-.06-.06-1.254-10.628-1.254-11.105,0-.287.919-1.493,1.039-1.361.036.024.155,1.087.275,2.364Zm46.822,1.254.346.2.012,2.579c.012,1.409.036,2.985.036,3.5.024,1.075-.107,1.254-.752,1.027l-.37-.131V29.472c0-.573-.036-2.233-.084-3.7l-.072-2.651h.275a1.585,1.585,0,0,1,.609.2ZM20.6,27.956c.215,2.293.561,6.162.788,8.6l.406,4.418-.466.466-.454.466-.084-.943c-.048-.525-.287-2.961-.537-5.421s-.609-6.03-.788-7.929l-.334-3.439.466-.43c.418-.394.466-.406.549-.191C20.19,23.669,20.393,25.651,20.6,27.956ZM11.652,29.4c.263,2.352.955,8.61,1.552,13.9s1.158,10.389,1.266,11.344.263,2.4.358,3.224C15,59.265,15,59.361,14.8,59.5c-.287.215-.406.191-.406-.06,0-.107-.107-1.015-.239-1.994-.215-1.636-.573-4.406-1.373-10.628-.167-1.254-.49-3.75-.716-5.553s-.585-4.49-.776-5.971-.513-4.012-.716-5.648a28.355,28.355,0,0,1-.31-3.224,4.327,4.327,0,0,1,.86-1.373C11.15,25.09,11.389,27.036,11.652,29.4ZM8,34.547c.179,1.433.513,4.048.74,5.827s.513,3.976.645,4.9l.227,1.672-.251.215c-.143.119-.287.167-.334.119a4.74,4.74,0,0,1-.215-1.051c-.072-.525-.513-3.594-.991-6.806l-.848-5.851.275-.812a3.007,3.007,0,0,1,.334-.8A22.606,22.606,0,0,1,8,34.547Zm65.557-1.564c.167.167.191.908.191,6.389v6.2h-.334c-.728,0-.716.179-.764-6.6l-.036-6.174h.382A.879.879,0,0,1,73.555,32.983ZM47.416,35.12a23.323,23.323,0,0,1,7.38,2.352,14.062,14.062,0,0,1,3.893,2.914,24.048,24.048,0,0,1,5.445,7.392c2.09,4.275,2.9,8.06,3.929,18.21.466,4.55,1.075,12.8,1.206,16.18.036.979.119,2.591.191,3.582.131,2.1.287,1.815-1.564,2.711a39.951,39.951,0,0,1-8.3,2.9,39.346,39.346,0,0,1-10.508,1.3l-2.866.012.024-1.373c0-.752.072-2.508.143-3.881a152.973,152.973,0,0,0-.179-19.7,43.21,43.21,0,0,0-1.063-6.639c-.06-.155.215-.287,1.4-.693,2.161-.752,4.036-1.7,4.323-2.161.513-.884-.406-2.149-1.576-2.149a5.48,5.48,0,0,0-1.373.466,45.135,45.135,0,0,1-11.129,3,31.673,31.673,0,0,1-7.762-.322,23.169,23.169,0,0,1-5.374-2.042c-2.161-1.122-3.487-2.615-3.881-4.382a10.75,10.75,0,0,1,.119-3.941,12.733,12.733,0,0,1,1.9-3.9c3.4-4.478,10.425-8.359,17.625-9.72A26.746,26.746,0,0,1,47.416,35.12Zm36.839.37c.43.179.478.227.478.633.024,3.26-.048,10.711-.107,11.022-.012.107-.633.119-.9.024-.167-.06-.191-.7-.191-5.971,0-3.773.048-5.9.119-5.9a3.007,3.007,0,0,1,.6.191Zm5.218,6.556.43.179-.084,9.887c-.1,12.6-.107,12.968-.561,14.055-.74,1.779-.7,2.137-.633-5.672.024-3.9.084-7.857.107-8.777s.048-3.511.06-5.768a25.664,25.664,0,0,1,.119-4.084A2.722,2.722,0,0,1,89.473,42.046ZM17.658,45.02a2.642,2.642,0,0,1-.3,1.827l-.382.812-.143-1.194c-.227-1.911-.227-1.994.227-2.281a.959.959,0,0,1,.454-.215,4.584,4.584,0,0,1,.143,1.051Zm-7.38,7.2c.107.979.943,7.475,1.373,10.664.645,4.932.693,5.636.406,5.338-.036-.036-.31-1.7-.6-3.69C9.6,51.659,9.61,51.742,9.765,51.647c.322-.215.43-.1.513.573Zm8.6,5.469c.072.3.418,3.535.418,3.929,0,.334-.43.645-.621.454a14.254,14.254,0,0,1-.334-2.245c-.131-1.182-.263-2.412-.3-2.735l-.072-.6.418.478A2.6,2.6,0,0,1,18.876,57.689Zm9.637,4.5c.131.119.215.6.322,1.887.179,2.329.2,2.149-.287,2.149s-.49.036-.657-2.066c-.167-2.138-.167-2.114.155-2.114A.973.973,0,0,1,28.513,62.191Zm9.457.179c.024.119.084.836.131,1.588s.143,2.448.239,3.761c.334,4.824.346,5.433.143,5.433-.227,0-.251-.179-.513-3.582-.1-1.409-.275-3.63-.394-4.932s-.179-2.388-.143-2.412C37.564,62.084,37.91,62.191,37.97,62.37Zm-22.45,2.293c.072.107.525,3.929,1.087,9.147.167,1.576.334,3.093.37,3.379l.06.513-.3-.191a.619.619,0,0,1-.31-.585c0-.752-.513-5.708-.908-8.741-.227-1.72-.406-3.236-.406-3.379a.22.22,0,0,1,.406-.143Zm68.913,4.991-.084,4.991-.3.442c-.681,1-.645,1.194-.609-4.394l.024-5.123.442-.454a2.358,2.358,0,0,1,.525-.442c.036,0,.036,2.245,0,4.979ZM73.388,77.571c.06,6.938.048,7.475-.143,7.69-.119.131-.227.215-.263.179-.084-.1-.2-15.225-.107-15.309a.379.379,0,0,1,.275-.06C73.3,70.108,73.34,70.956,73.388,77.571Zm-39-4.753c.084.74.382,4.287.5,5.959.072,1.122.072,1.158-.191,1.242-.143.048-.31.036-.358-.024-.084-.084-.346-2.735-.669-6.818l-.084-.979h.37C34.3,72.2,34.328,72.222,34.388,72.819ZM25,77a1.249,1.249,0,0,1,.143.681c0,.31.143,1.923.3,3.594.454,4.573.49,5.194.287,5.075-.31-.179-.585-.454-.525-.525a8.274,8.274,0,0,0-.119-1.325c-.084-.693-.191-1.815-.239-2.508s-.155-1.958-.251-2.806c-.227-2.09-.215-2.329.048-2.329A.563.563,0,0,1,25,77Zm5.648,8.036c.036.263.107,1.242.155,2.173.084,1.791.048,1.923-.442,1.552-.143-.107-.239-.561-.382-1.923-.251-2.46-.263-2.364.2-2.317C30.531,84.557,30.578,84.6,30.65,85.035Z" transform="translate(0 0)"/>
      <path id="Path_27" data-name="Path 27" d="M213.668,340.946a1.588,1.588,0,1,0,1.982,2.3A1.583,1.583,0,0,0,213.668,340.946Zm8.1,1.146a1.831,1.831,0,0,0,0,3.1,1.765,1.765,0,1,0,0-3.1Z" transform="translate(-187.281 -300.106)"/>
    </g>
  </g>
  <path id="react" d="M63.75,47.308A10.872,10.872,0,1,1,52.878,58.3,10.918,10.918,0,0,1,63.75,47.308m-26.919,57.5c3.663,2.209,11.686-1.163,20.93-9.884a140.84,140.84,0,0,1-8.779-11.047,131.977,131.977,0,0,1-13.953-2.093c-2.965,12.442-1.86,20.988,1.8,23.023m4.128-33.372L39.273,68.47a46.014,46.014,0,0,0-1.686,5c1.57.349,3.314.64,5.116.93l-1.744-2.965m38.023-4.419L83.692,58.3l-4.709-8.721c-1.744-3.081-3.6-5.814-5.291-8.547-3.14-.174-6.453-.174-9.942-.174s-6.8,0-9.942.174c-1.686,2.733-3.547,5.465-5.291,8.547L43.808,58.3l4.709,8.721c1.744,3.081,3.6,5.814,5.291,8.547,3.14.174,6.453.174,9.942.174s6.8,0,9.942-.174c1.686-2.733,3.547-5.465,5.291-8.547M63.75,27.947c-1.1,1.279-2.267,2.616-3.43,4.186h6.86c-1.163-1.57-2.326-2.907-3.43-4.186m0,60.7c1.1-1.279,2.267-2.616,3.43-4.186H60.32c1.163,1.57,2.326,2.907,3.43,4.186M90.61,11.784c-3.6-2.209-11.628,1.163-20.872,9.884a140.84,140.84,0,0,1,8.779,11.047,131.982,131.982,0,0,1,13.954,2.093c2.965-12.442,1.86-20.988-1.86-23.023m-4.07,33.372,1.686,2.965a46.015,46.015,0,0,0,1.686-5c-1.57-.349-3.314-.64-5.116-.93l1.744,2.965m8.43-40.988c8.547,4.884,9.477,17.733,5.872,32.733,14.767,4.36,25.407,11.57,25.407,21.4s-10.64,17.035-25.407,21.4c3.6,15,2.674,27.849-5.872,32.733-8.488,4.884-20.058-.7-31.221-11.337-11.163,10.64-22.733,16.221-31.279,11.337-8.488-4.884-9.419-17.733-5.814-32.733C11.89,75.331,1.25,68.122,1.25,58.3S11.89,41.261,26.657,36.9c-3.6-15-2.674-27.849,5.814-32.733,8.547-4.884,20.116.7,31.279,11.337C74.913,4.866,86.483-.716,94.971,4.168M93.285,58.3a130.9,130.9,0,0,1,5.174,13.14c12.209-3.663,19.07-8.9,19.07-13.14s-6.86-9.477-19.07-13.14A130.9,130.9,0,0,1,93.285,58.3m-59.07,0a130.9,130.9,0,0,1-5.174-13.14c-12.209,3.663-19.07,8.9-19.07,13.14s6.86,9.477,19.07,13.14A130.9,130.9,0,0,1,34.215,58.3m52.326,13.14L84.8,74.4c1.8-.291,3.547-.581,5.116-.93a46.014,46.014,0,0,0-1.686-5l-1.686,2.965m-16.8,23.488c9.244,8.721,17.267,12.093,20.872,9.884,3.721-2.035,4.826-10.581,1.86-23.023a131.977,131.977,0,0,1-13.954,2.093,140.84,140.84,0,0,1-8.779,11.047M40.959,45.156,42.7,42.191c-1.8.291-3.547.581-5.116.93a46.016,46.016,0,0,0,1.686,5l1.686-2.965m16.8-23.488c-9.244-8.721-17.267-12.093-20.93-9.884-3.663,2.035-4.767,10.581-1.8,23.023a131.981,131.981,0,0,1,13.953-2.093A140.84,140.84,0,0,1,57.762,21.668Z" transform="translate(858.387 438.728)" fill="#00bcd4"/>
  <path id="typescript" d="M46,46V162.372H162.372V46Zm88.425,56.523v0c1.116,0,2.384.061,3.338.164a13.5,13.5,0,0,1,9.483,5.253c1.282,1.572,1.72,2.26,1.627,2.555-.06.19-.94.82-3.735,2.676-2.746,1.823-3.631,2.369-3.837,2.369s-.642-.447-1.268-1.3a5.824,5.824,0,0,0-4.337-2.656,4.9,4.9,0,0,0-4.778,1.68,4.545,4.545,0,0,0-.274,4.215c.707,1.511,1.987,2.346,6.893,4.5,5.658,2.481,8.525,4.179,10.613,6.286a13.066,13.066,0,0,1,3.738,8.6,15.888,15.888,0,0,1-.555,5.688c-1.268,4.267-4.689,7.392-9.7,8.863a18.8,18.8,0,0,1-3.952.743,34.771,34.771,0,0,1-6.414-.18c-4.245-.618-9.038-3.089-11.427-5.89a16.952,16.952,0,0,1-2.671-4.036c0-.192.1-.3.472-.541,1.118-.711,7.528-4.375,7.653-4.375a3.4,3.4,0,0,1,.744.877A18.538,18.538,0,0,0,129.6,141.6a9.566,9.566,0,0,0,2.932,1.218,8.63,8.63,0,0,0,2.492.2,7.86,7.86,0,0,0,2.473-.206,5.691,5.691,0,0,0,3.74-2.668c.257-.521.262-.586.262-1.848v-1.309l-.315-.624c-.763-1.514-2.406-2.552-7.6-4.8a60.933,60.933,0,0,1-6.449-3.216,15,15,0,0,1-5.592-5.862c-1.178-2.3-1.354-3.16-1.357-6.622,0-2.71-.007-2.677.554-4.407a12.93,12.93,0,0,1,2.7-4.546,14.468,14.468,0,0,1,9.243-4.322c.459-.043,1.075-.06,1.744-.058Zm-30.907.535h0c6.918,0,10.883.027,10.947.067.12.074.135.676.135,4.519v4.433l-6.9.025-6.9.025v19.6c0,10.779-.022,19.663-.052,19.741-.049.132-.58.142-5.071.142H90.656l-.052-.2c-.033-.111-.058-8.995-.058-19.741l0-19.539-6.9-.025-6.9-.025V107.7c0-3.474.024-4.4.116-4.5s3.618-.123,18.8-.138c2.927,0,5.56,0,7.867,0Z" transform="translate(1175.402 790.784)" fill="#0288d1" fill-rule="evenodd"/>
  <path id="html" d="M52.28,91.516l24.743-6.87,3.344-37.084H36.352L35.257,35.221h46.2l1.216-12.1H21.883l3.4,36.537H67.174l-1.4,15.685-13.5,3.648-13.5-3.648-.851-10.092H25.773l1.763,19.393,24.743,6.87M4.07,3h96.419L91.8,101.486,52.28,112.429,12.764,101.486,4.07,3Z" transform="translate(1463.58 741.521)" fill="#e44d26"/>
  <path id="Subtraction_7" data-name="Subtraction 7" d="M42.5,96h0L7.664,86.4,0,0H85L77.336,86.4,42.5,96ZM15.394,53.944,13.036,65.823l23.427,8.909,27.008-8.909,2.217-11.087,1.364-6.821.716-3.593,4.6-23.046H21.81l-1.94,9.919H60.428L59.115,37.61H18.587L16.618,47.5H57.175L54.907,58.814,38.552,64.189,24.377,58.814l.985-4.871Z" transform="translate(963.906 59)" fill="#42a5f5"/>
  <g id="adobe-xd-1" transform="translate(562.906 678)">
    <path id="Path_7142" data-name="Path 7142" d="M91.909,108.895H19.777A19.76,19.76,0,0,1,0,89.117V19.777A19.76,19.76,0,0,1,19.777,0H91.909a19.76,19.76,0,0,1,19.777,19.777v69.34A19.76,19.76,0,0,1,91.909,108.895Z" fill="#ff26be"/>
    <path id="Path_7143" data-name="Path 7143" d="M189.685,203.784H121.091A16.921,16.921,0,0,1,104.2,186.893v-65.8A16.921,16.921,0,0,1,121.091,104.2H189.64a16.89,16.89,0,0,1,16.892,16.892v65.757a16.864,16.864,0,0,1-16.847,16.936Z" transform="translate(-99.545 -99.545)" fill="#2e001f"/>
    <path id="Path_7144" data-name="Path 7144" d="M490,617.273l13.032,25.036c.232.371.094.746-.281.746h-8.1a.912.912,0,0,1-.978-.6c-2.98-6.143-6-12.286-9.123-18.893h-.094c-2.792,6.237-5.866,12.8-8.841,18.942a.9.9,0,0,1-.84.514h-7.671c-.465,0-.514-.371-.277-.652l12.75-24.294L467.248,593.5a.376.376,0,0,1,.277-.652h8.006c.465,0,.652.094.835.514,2.931,6.143,5.91,12.473,8.7,18.661h.094c2.7-6.143,5.678-12.518,8.564-18.616.232-.371.371-.6.84-.6h7.492c.371,0,.514.281.281.652Zm15.314,7.586c0-10.843,7.215-19.313,18.661-19.313a20.515,20.515,0,0,1,2.421.094v-12.33a.464.464,0,0,1,.465-.465h7.353c.371,0,.465.138.465.371v42.722a33.237,33.237,0,0,0,.232,4.561c0,.281-.094.371-.371.514a27.7,27.7,0,0,1-11.915,2.7c-10.1.04-17.316-6.192-17.311-18.853Zm21.077-11.91a6.994,6.994,0,0,0-2.7-.465c-5.866,0-9.958,4.512-9.958,12.009,0,8.564,4.19,12.009,9.449,12.009a8.725,8.725,0,0,0,3.212-.514V612.948Z" transform="translate(-445.84 -566.317)" fill="#ffd9f2"/>
  </g>
  <path id="Icon_awesome-git-alt" data-name="Icon awesome-git-alt" d="M120.886,58.368,67.106,4.573a7.94,7.94,0,0,0-11.224,0L44.7,15.747,58.869,29.917A9.428,9.428,0,0,1,70.8,41.93L84.46,55.587c9.414-3.245,16.826,8.526,9.755,15.591-7.285,7.285-19.309-.789-15.4-10.269L66.066,48.178V81.69c6.958,3.449,6.122,11.51,2.5,15.126A9.437,9.437,0,1,1,58.3,81.415V47.587a9.434,9.434,0,0,1-5.126-12.376L39.21,21.226,2.324,58.117a7.937,7.937,0,0,0,0,11.224l53.8,53.794a7.937,7.937,0,0,0,11.221,0l53.544-53.544a7.937,7.937,0,0,0,0-11.224Z" transform="translate(1485.477 282.313)" fill="#ff7d4e"/>
  <path id="Icon_awesome-aws" data-name="Icon awesome-aws" d="M32.094,29.252c-.128,4.029,1.886,5.813,1.935,6.947a1.452,1.452,0,0,1-.729,1.115l-2.277,1.594a1.9,1.9,0,0,1-1,.342c-.076,0-1.457.326-3.643-4.556A13.984,13.984,0,0,1,15.24,39.933c-2.9.158-10.745-1.644-10.341-10-.283-6.81,6.059-11.04,12.618-10.682a35.727,35.727,0,0,1,8.359,1.115V17.588c.479-4.707-2.615-8.359-7.971-7.811a21.22,21.22,0,0,0-8.155,1.8c-1.309.6-1.476.5-1.912.5-1.318,0-.776-3.821-.523-4.3.927-1.139,6.379-3.264,11.73-3.234a13.672,13.672,0,0,1,9.907,3.074A12.5,12.5,0,0,1,32.1,16.926l0,12.326ZM16.72,35.014c5.769-.084,8.211-3.552,8.768-5.42a17.818,17.818,0,0,0,.365-4.874,30.576,30.576,0,0,0-7.037-.866c-2.7-.2-7.617,1-7.425,5.739a4.941,4.941,0,0,0,5.33,5.422Zm30.405,4.1A2.054,2.054,0,0,1,44.87,37.27L36.011,7.98a6.8,6.8,0,0,1-.342-1.526.82.82,0,0,1,.687-.934c.043-.007-.379,0,3.958,0a2.021,2.021,0,0,1,2.233,1.845L48.9,32.417,54.8,7.364a2.013,2.013,0,0,1,2.277-1.822h3.053a1.969,1.969,0,0,1,2.256,1.845L68.33,32.76,74.889,7.388a2.081,2.081,0,0,1,2.256-1.845h3.508c.151-.023,1.094-.144.934,1.526-.076.329.607-1.9-9.384,30.224a2.053,2.053,0,0,1-2.256,1.845H66.622a2.053,2.053,0,0,1-2.256-1.912l-5.9-24.394L52.636,37.2a2.05,2.05,0,0,1-2.256,1.912H47.125Zm48.65,1a24.033,24.033,0,0,1-10.2-2.186,2.277,2.277,0,0,1-1.389-2.119V33.9c0-1.5,1.1-1.227,1.571-1.048a24.425,24.425,0,0,0,5.125,1.708c6.52,1.34,9.387-.409,10.09-.8a4.09,4.09,0,0,0,.934-6.217c-1.864-1.564-2.754-1.622-9.451-3.736-.825-.229-7.774-2.421-7.79-9.314C84.552,9.471,89.117,4.5,97.027,4.541c2.254,0,8.259.735,9.885,2.779a2.149,2.149,0,0,1,.342,1.252v1.8q0,1.185-.866,1.185c-1.372-.153-3.805-1.987-8.745-1.912-1.226-.064-7.1.162-6.833,4.442-.076,3.373,4.734,4.638,5.283,4.783,6.486,1.951,8.654,2.275,11.228,5.262,3.049,3.958,1.405,8.592.774,9.862-3.394,6.669-12.171,6.127-12.321,6.123Zm7.151,18.654c-12.458,9.2-30.542,14.1-45.983,14.1A83.454,83.454,0,0,1,.5,51.391c-1.162-1.048-.137-2.483,1.275-1.685A113.383,113.383,0,0,0,58.149,64.67a112.111,112.111,0,0,0,42.977-8.815c2.1-.889,3.873,1.388,1.8,2.914Zm5.193-5.922c-1.594-2.049-10.545-.957-14.553-.479-1.208.137-1.412-.911-.318-1.685,7.128-5.011,18.835-3.576,20.18-1.891s-.365,13.415-7.037,19.018c-1.025.866-2,.409-1.549-.729,1.5-3.78,4.872-12.184,3.279-14.235Z" transform="translate(838.906 234.515)" fill="#ffa228"/>
  <g id="graphql" transform="translate(1613.908 849.844)">
    <path id="Path_7145" data-name="Path 7145" d="M56.929,92.722l-3.064-1.769L88,31.832,91.063,33.6Z" transform="translate(-12.168 -8.954)" fill="#ec407a" stroke="#ec407a" stroke-width="2"/>
    <path id="Path_7146" data-name="Path 7146" d="M50.855,265.17h68.267v3.538H50.855Z" transform="translate(-9.86 -187.895)" fill="#ec407a" stroke="#ec407a" stroke-width="2"/>
    <path id="Path_7147" data-name="Path 7147" d="M90.8,114.312,56.65,94.6l1.769-3.064,34.146,19.715Zm29.663-51.383L86.313,43.213l1.769-3.064,34.146,19.715Z" transform="translate(-14.304 -15.332)" fill="#ec407a" stroke="#ec407a" stroke-width="2"/>
    <path id="Path_7148" data-name="Path 7148" d="M58.459,62.869,56.69,59.805,90.836,40.09,92.6,43.154Z" transform="translate(-14.335 -15.287)" fill="#ec407a" stroke="#ec407a" stroke-width="2"/>
    <path id="Path_7149" data-name="Path 7149" d="M124.285,92.722,90.151,33.6l3.064-1.769,34.134,59.121ZM62.46,51.125H66V90.556H62.46Zm59.338,0h3.538V90.556H121.8Z" transform="translate(-18.76 -8.954)" fill="#ec407a" stroke="#ec407a" stroke-width="2"/>
    <path id="Path_7150" data-name="Path 7150" d="M195.457,286.641l-1.545-2.677,29.7-17.147,1.545,2.676Z" transform="translate(-119.567 -189.158)" fill="#ec407a" stroke="#ec407a" stroke-width="2"/>
    <path id="Path_7151" data-name="Path 7151" d="M111.265,82.754a7.443,7.443,0,1,1-2.728-10.167,7.45,7.45,0,0,1,2.728,10.167M51.885,48.461a7.443,7.443,0,1,1-2.728-10.167,7.45,7.45,0,0,1,2.728,10.167M39.012,82.754a7.443,7.443,0,1,1,10.167,2.728,7.455,7.455,0,0,1-10.167-2.728m59.38-34.293a7.443,7.443,0,1,1,10.167,2.728,7.455,7.455,0,0,1-10.167-2.728m-23.253,55.16a7.438,7.438,0,1,1,7.438-7.438,7.431,7.431,0,0,1-7.438,7.438m0-68.588a7.438,7.438,0,1,1,7.438-7.438,7.431,7.431,0,0,1-7.438,7.438" fill="#ec407a" stroke="#ec407a" stroke-width="2"/>
  </g>
  <g id="vscode" transform="translate(1585.669 88.047)">
    <path id="Path_7152" data-name="Path 7152" d="M10.629,278.24v8.392H2.237V278.24Z" transform="translate(0 -139.31)" fill="#f6f6f6" opacity="0"/>
    <path id="Path_7153" data-name="Path 7153" d="M112.763,29.953,66.5,72.493,40.641,53,29.955,59.223l25.487,23.42-25.487,23.42L40.641,112.3,66.5,92.813l46.266,42.521,22.571-10.962V40.916Zm0,27.978v49.422l-32.8-24.712Z" transform="translate(-15.552 0)" fill="#2196f3"/>
  </g>
</svg>
